<svg xmlns="http://www.w3.org/2000/svg" viewBox="0 0 124.12 91.92"><defs><style>.cls-1{fill:#cfaa9d}</style></defs><title>Ресурс 2</title><g id="Слой_2" data-name="Слой 2"><g id="Слой_1-2" data-name="Слой 1"><path class="cls-1" d="M0 15.77C2 11.46 5.23 9.7 10 9.9c6.77.29 13.57 0 20.35.11a3.41 3.41 0 0 0 3.39-1.72C40.1-2 39.8.25 49.32.12 59.57 0 69.83.19 80.09 0a8 8 0 0 1 7.34 3.76 5.26 5.26 0 0 1 .69 1c1.71 4.59 5.07 5.61 9.7 5.29 5.95-.41 11.95-.12 17.92-.09 5.06 0 8.37 3.28 8.38 8.3v65.41c0 4.9-3.32 8.19-8.22 8.19H8.33C4 91.93 1.7 89.55 0 86.07zM62 87h52.84c4 0 4.34-.37 4.34-4.22v-63.5c0-4-.33-4.34-4.46-4.34-5.49 0-11 .1-16.48 0-8.59-.24-8.36 2.06-14.51-7.88a4 4 0 0 0-3.95-2c-10.5.08-21 .29-31.5-.08-4.69-.17-8.16.65-9.94 5.32a6 6 0 0 1-.82 1.2 7.66 7.66 0 0 1-7 3.51c-7.19-.18-14.38-.06-21.57-.06-3.61 0-4.06.44-4.06 4v64c0 3.62.43 4.06 4 4.06z"/><path class="cls-1" d="M94.32 46.9C94.64 64.17 80 79.12 62.55 79.45s-32.35-14.1-32.77-31.8c-.4-17.28 14.37-32.44 31.9-32.73C79 14.64 94 29.29 94.32 46.9zM62 20c-15.54 0-27.27 11.88-27.19 27.37s11.95 27.2 27.45 27.11a26.75 26.75 0 0 0 27-27.28C89.28 31.71 77.42 19.89 62 20zM21.14 32.3c-3.29 0-5.09-1-5.92-3.16a4.88 4.88 0 0 1 4-6.63 19.71 19.71 0 0 1 2.9-.05c3.12.11 5.11 2.05 5.1 4.92s-2 4.81-5.13 4.92z"/><path class="cls-1" d="M62.09 24.93a22.67 22.67 0 0 1 22.28 22.45C84.33 59.29 74 69.59 62 69.57s-22.31-10.41-22.27-22.5 10.35-22.16 22.36-22.14zm0 4.92a17 17 0 0 0-17.43 17.24 17.4 17.4 0 1 0 34.8 0 17 17 0 0 0-17.4-17.25z"/></g></g></svg>