<svg id="Слой_1" data-name="Слой 1" xmlns="http://www.w3.org/2000/svg" viewBox="0 0 52.33 69.66"><defs><style>.cls-1{fill:#cfaa9d}.cls-2{fill:#fff}</style></defs><title>иконки электрастайл</title><path class="cls-1" d="M2.54 2.17h47.67v47.67H2.54z"/><path class="cls-2" d="M40.12 27.25L26.37 13.61 12.62 27.25l-.7-.71 14.45-14.33 14.45 14.33-.7.71z"/><path class="cls-2" d="M40.12 38.24L26.37 24.6 12.62 38.24l-.7-.72 14.45-14.33 14.45 14.33-.7.72z"/><path class="cls-1" d="M4.78 66.63l1-.29v-6.52l-1-.29v-.2H8v.2l-1 .29v2.8h4v-2.8l-1-.29v-.2h3.2v.2l-1.05.29v6.52l1.05.29v.2H10v-.2l1-.29v-3.15H7v3.15l1 .29v.2H4.78zm12.82-7.46h.21l2.91 7.17.66.29v.2h-2.8v-.2l.91-.29-.76-1.88H16l-.75 1.88.88.29v.2h-2.27v-.2l.69-.29zm-1.42 4.73h2.32l-1.19-3.09zm5.91 2.73l1-.29v-6.52l-1-.29v-.2h3c1.46 0 2.48.46 2.48 1.64a1.9 1.9 0 0 1-1.36 1.75v.08A1.93 1.93 0 0 1 28 64.62c0 1.34-1 2.21-3 2.21h-2.9zm2.17-3.92c1.64 0 2.13-.62 2.13-1.6a1.34 1.34 0 0 0-1.5-1.42 2.35 2.35 0 0 0-.63.08zm0 3.63a2.61 2.61 0 0 0 .77.1 1.6 1.6 0 0 0 1.77-1.67c0-1.29-1-1.7-2.09-1.7h-.45zm4.79.29l1-.29v-6.52l-1-.29v-.2h5.47V61h-.27c-.34-1-.5-1.18-1.39-1.18h-1.61v2.89l1.86-.05.28-.91h.23v2.34h-.24l-.27-.91h-1.86v3.24H33c1 0 1.25 0 1.61-1.45h.26v2h-5.82zm10.17-7.3c1.66 0 2.75.56 2.75 2s-1.07 2.37-2.76 2.37a8.5 8.5 0 0 1-1-.16v2.8l1.16.29v.2H36v-.2l1-.29v-6.52l-1-.29v-.2zm-1 3.92a4.34 4.34 0 0 0 .44 0 3.53 3.53 0 0 0 1-.12 1.81 1.81 0 0 0-.66-3.44 2.53 2.53 0 0 0-.72.09zm7.64-3.92v.2l-.78.29 1.53 2.37 1.57-2.37-.8-.29v-.2h2.44v.2l-.82.29-2.15 2.72 2.52 3.8.79.29v.2h-3.11v-.2l1-.29-1.95-3-1.88 3 .92.29v.2h-2.57v-.2l.78-.29L45.82 63l-2.1-3.18-.9-.29v-.2z"/></svg>