<svg xmlns="http://www.w3.org/2000/svg" viewBox="0 0 92.32 113.33"><title>Ресурс 2</title><path d="M28.27 13.53h45.24v5.71H28.27zm0 15.01h44.4v5.71h-44.4zM14.11 74.2h36.36v5.71H14.11z"/><path d="M92.32 62.29A19.67 19.67 0 0 0 81.41 44.7C87.73 37 89.68 27.21 87 16.19a51.42 51.42 0 0 0-6.24-14.91L79.91 0H6l-.41 2.37c-.55 3.17 1.67 5.54 4 8 4.68 5 11.09 11.81.77 29C1.22 54.74-1.9 68.15 1.11 79.28 3.46 88 8.84 91.9 9.06 92.06l.75.54h51.55v20.73L72.69 102l11.5 11.21v-35a19.65 19.65 0 0 0 8.13-15.92zm-5.71 0a13.95 13.95 0 1 1-13.94-13.94 14 14 0 0 1 13.94 13.94zm-74.84 24.6C8.92 84.21-2 71.25 15.29 42.37 27.82 21.46 19 12.1 13.78 6.51l-.78-.8h63.76c2.72 4.81 11.21 22.21.17 35.47l-7 .91-3.06.63A15.53 15.53 0 0 0 63.16 44v-.45l-41.43-.11v5.71l35.17.09-.6.69a17.1 17.1 0 0 0-4 8.45l-.19 1.1H15.16v5.71H52a14.34 14.34 0 0 0 1.85 4.71l1.35 2.18 3.82 4.64A14.83 14.83 0 0 0 61.36 79v7.93zm66.71 12.78L72.64 94l-5.58 5.58V82.24h11.42z"/></svg>