<svg id="Layer_1" xmlns="http://www.w3.org/2000/svg" xmlns:xlink="http://www.w3.org/1999/xlink" viewBox="0 0 90 60"><style>.st0{clip-path:url(#SVGID_2_);fill:#cfaa9d}</style><defs><path id="SVGID_1_" d="M0 0h90v60H0z"/></defs><clipPath id="SVGID_2_"><use xlink:href="#SVGID_1_" overflow="visible"/></clipPath><path class="st0" d="M19.9 40C13.1 55.1 0 60 0 60c22.1 0 40-17.9 40-40C40 9 31 0 20 0S0 9 0 20s8.9 20 19.9 20M50 20c0 11 8.9 20 19.9 20C63.1 55.1 50 60 50 60c22.1 0 40-17.9 40-40C90 9 81 0 70 0S50 9 50 20"/></svg>