<svg id="Слой_1" data-name="Слой 1" xmlns="http://www.w3.org/2000/svg" viewBox="0 0 48 46"><defs><style>.cls-1{fill:#fff}.cls-2{fill:#c9a399}</style></defs><title>иконки электрастайл</title><path class="cls-1" d="M8.92.08h29l9.66 27.5-24.5 18.34L.42 27.42 8.92.08z"/><path class="cls-2" d="M15.05 12.29l3.52 4.26-.1-3.87-.74-.22v-.15h1.87v.15l-.61.22-.13 5.32h-.18l-4-4.92.11 4.42.76.21v.16h-2v-.16l.72-.21.08-4.85-.84-.27v-.15zm5.28 5.48l.78-.21v-4.9l-.78-.22v-.15h4.1v1.23h-.19c-.27-.73-.38-.89-1-.89H22v2.17h1.39l.21-.69h.17v1.76h-.18l-.2-.69H22v2.43h1.34c.77 0 .93 0 1.2-1.09h.2v1.47h-4.4zm7.06-5.48v.15l-.63.22.95 3.78 1.49-4.14h.14l1.53 4.14.9-3.78-.7-.22v-.15h1.68v.15l-.48.22-1.57 5.39h-.12l-1.54-4.23-1.62 4.23h-.14l-1.46-5.39-.52-.22v-.15zm-13.2 15.33a4.14 4.14 0 0 1-2 .43 2.68 2.68 0 0 1-2.8-2.91 2.84 2.84 0 0 1 3-3 3.5 3.5 0 0 1 1.69.36v1h-.19a1.41 1.41 0 0 0-1.51-1.05c-1.24 0-2.05 1-2.05 2.63 0 1.45.78 2.65 2 2.65a1.65 1.65 0 0 0 1.74-1.28h.19zm.94-2.48a2.93 2.93 0 0 1 3.1-3A2.62 2.62 0 0 1 21.06 25 2.92 2.92 0 0 1 18 28a2.71 2.71 0 0 1-2.87-2.86zm1-.05c0 1.62.84 2.66 2 2.66s2-1.08 2-2.64-.82-2.64-2-2.64-2.03 1.09-2.03 2.62zm5.71 2.68l.78-.21v-4.9l-.78-.22v-.15h2.43v.15l-.78.22v4.89h1.34c.81 0 1-.24 1.23-1.19h.2v1.57h-4.42zm5.09-2.63a2.93 2.93 0 0 1 3.1-3A2.62 2.62 0 0 1 32.86 25a2.93 2.93 0 0 1-3.06 3 2.71 2.71 0 0 1-2.87-2.86zm1-.05c0 1.62.84 2.66 2 2.66s2-1.08 2-2.64-.82-2.64-2-2.64-2.03 1.09-2.03 2.62zm5.71 2.68l.78-.21v-4.9l-.78-.22v-.15h2.46c1.42 0 2 .59 2 1.41a1.52 1.52 0 0 1-1.19 1.44l.78 1.25c.76 1.18 1.09 1.37 1.4 1.38v.16h-.89c-.48 0-.77-.24-1.39-1.28l-.73-1.3-.79-.05v2.25l.69.21v.16h-2.34zm1.65-2.68c1.28 0 1.87-.38 1.87-1.34a1.13 1.13 0 0 0-1.28-1.19 2.67 2.67 0 0 0-.59.06z"/></svg>