<svg xmlns="http://www.w3.org/2000/svg" viewBox="0 0 276.02 270"><defs><style>.cls-1{fill:#e3ad9f}.cls-2{fill:#fff}</style></defs><title>Ресурс 4</title><g id="Слой_2" data-name="Слой 2"><g id="Слой_1-2" data-name="Слой 1"><path class="cls-1" d="M0 168l136.02 102 140-106-50-164h-173L0 168z"/><path class="cls-2" d="M137.07 108.21V95.38a2.69 2.69 0 0 1 2.78-2.83 2.72 2.72 0 0 1 2.65 2.77v24.63a3 3 0 0 0 1.71 3.07 8.43 8.43 0 0 1-.11 14.65 2.57 2.57 0 0 0-1.59 2.81 8.9 8.9 0 0 1 0 1.88 2.62 2.62 0 0 1-2.66 2.37c-1.41 0-2.78-1-2.66-2.31.25-2.66-.83-4.13-3-5.76-4.71-3.6-3.83-10.83 1.42-13.79a2.45 2.45 0 0 0 1.47-2.52c-.08-4.05-.01-8.09-.01-12.14zm-32.32 41.09a2.76 2.76 0 0 1-2.93 2.68 2.67 2.67 0 0 1-2.64-2.76 2.61 2.61 0 0 1 2.89-2.65 2.72 2.72 0 0 1 2.68 2.73zm75.68-.03a2.68 2.68 0 0 1-2.86 2.71 2.72 2.72 0 0 1-2.7-2.72 2.69 2.69 0 0 1 2.89-2.69 2.62 2.62 0 0 1 2.67 2.7zm-62.52-56.92a2.77 2.77 0 0 1-2.69-2.91 2.71 2.71 0 0 1 2.78-2.67 2.68 2.68 0 0 1 2.68 2.9 2.73 2.73 0 0 1-2.77 2.68zm46.48-2.89a2.79 2.79 0 0 1-2.73 2.9 2.76 2.76 0 0 1-2.66-2.72 2.66 2.66 0 0 1 2.7-2.87 2.72 2.72 0 0 1 2.69 2.69zm-21.86-5.81a2.72 2.72 0 1 1-5.44.07 2.63 2.63 0 0 1 2.76-2.79 2.67 2.67 0 0 1 2.68 2.72zm35.16 19.16a2.71 2.71 0 0 1 2.74 2.68 2.67 2.67 0 0 1-2.78 2.79 2.73 2.73 0 1 1 0-5.46zM96.1 124.69a2.72 2.72 0 1 1 0 5.43 2.65 2.65 0 0 1-2.71-2.84 2.59 2.59 0 0 1 2.71-2.59zm90.16 2.71a2.57 2.57 0 0 1-2.64 2.71 2.71 2.71 0 1 1-.19-5.43 2.64 2.64 0 0 1 2.83 2.72zm-65.61 37.9A2.58 2.58 0 0 1 118 168a2.66 2.66 0 0 1-2.79-2.75 2.58 2.58 0 0 1 2.84-2.68 2.54 2.54 0 0 1 2.6 2.73zm43.74.02a2.66 2.66 0 0 1-2.85 2.69 2.61 2.61 0 0 1-2.58-2.78 2.72 2.72 0 0 1 5.43.09zm-59.65-59.77a2.75 2.75 0 0 1-2.72 2.72 2.73 2.73 0 1 1 0-5.46 2.77 2.77 0 0 1 2.72 2.74zm37.77 65.57a2.56 2.56 0 0 1-2.61 2.72 2.62 2.62 0 0 1-2.82-2.7 2.72 2.72 0 0 1 5.43 0z"/><path class="cls-2" d="M86.59 82.24l-6.33-6.45c-1 1.16-1.88 2.45-3 3.59-1.62 1.69-3.05 1.67-4.72.08-.86-.83-1.73-1.66-2.53-2.55a2.68 2.68 0 0 1 0-4q5.75-5.85 11.61-11.61a2.63 2.63 0 0 1 4 .05c1 .88 1.9 1.81 2.78 2.78a2.71 2.71 0 0 1 0 4.1c-1.17 1.23-2.45 2.35-3.6 3.45l6.09 6a70.34 70.34 0 0 1 36.21-18.9c-5.92-5.33-8.42-11.67-7.29-19.19a19.42 19.42 0 0 1 7.63-12.73 20.32 20.32 0 0 1 27.05 2.06c6.46 6.6 8.86 20-1.85 29.87a70.26 70.26 0 0 1 35.76 18.65l5.89-5.87c-1.13-.93-2.42-1.87-3.55-3-1.77-1.73-1.72-3 0-4.83.72-.73 1.43-1.47 2.18-2.17 1.53-1.44 3-1.46 4.48 0q5.6 5.53 11.13 11.12c1.46 1.48 1.4 3-.07 4.49q-1.13 1.17-2.3 2.3c-1.57 1.5-3 1.51-4.6-.07-1.11-1.13-2.11-2.37-3.07-3.47l-5.87 5.81c14.23 17.22 19.78 37 15.58 59.15a67.2 67.2 0 0 1-24.42 40.57c-26 21.11-63.18 20.93-88.52-.4-14.81-12.46-23.31-28.38-25-47.71S74.4 97 86.59 82.24zm117.51 45.19c0-35.21-29.19-64.4-64.36-64.27a64.46 64.46 0 0 0-64.23 64.18c0 35.31 28.89 64.42 64.24 64.34a64.38 64.38 0 0 0 64.34-64.25zm-58.56-71.2c6.32-2.32 10-9.48 8.68-16.34a14.73 14.73 0 0 0-29.12 2c-.59 5.85 3.76 12.88 9 14.24v-9.39c0-2.82.95-3.75 3.82-3.76h3.93c2.68 0 3.7 1 3.7 3.73-.01 3.11-.02 6.23-.02 9.52z"/><path class="cls-2" d="M139.76 185.5a58.11 58.11 0 1 1 58.15-58.1 58 58 0 0 1-58.15 58.1zm52.68-58c.14-28.76-23.44-52.5-52.33-52.64a52.66 52.66 0 0 0-52.93 52.5C87 156 110.76 179.9 139.5 180a52.86 52.86 0 0 0 52.93-52.54z"/></g></g></svg>