<svg xmlns="http://www.w3.org/2000/svg" viewBox="0 0 276.02 270"><defs><style>.cls-1{fill:#e3ad9f}.cls-2{fill:#fff}.cls-3{fill:none;stroke:#fff;stroke-linejoin:round;stroke-width:.7px}</style></defs><title>Ресурс 7</title><g id="Слой_2" data-name="Слой 2"><g id="Слой_1-2" data-name="Слой 1"><path class="cls-1" d="M0 168l136.02 102 140-106-50-164h-173L0 168z"/><path class="cls-2" d="M176.32 195.62c-5.37-3.34-23.19-14.75-35.38-26.45-14.92-14.32-8.36-52.83-8.08-54.46l.34-1.93h2c5.19 0 9.15-1.52 11.77-4.52 5.08-5.83 3.83-15.39 3.82-15.49l-.37-2.66h56.52l-.29 2.65c0 .41-1.16 9.81 3.83 15.51 2.62 3 6.57 4.51 11.76 4.51h2l.34 1.93c.29 1.63 6.87 40.12-8.07 54.46-12.18 11.7-30 23.1-35.37 26.45l-.62 2.5-1.76-1-1.76 1.01zm-39.13-78.23c-1 6.77-4.55 37.33 7 48.41 11.78 11.31 29.16 22.46 34.51 25.79 5.35-3.33 22.72-14.47 34.51-25.79 11.54-11.08 8-41.63 7-48.41-5.64-.38-10.11-2.42-13.28-6.06-4.61-5.28-5.2-12.49-5.11-16.54h-46.24c.09 4.06-.5 11.26-5.11 16.54-3.17 3.67-7.63 5.67-13.28 6.06z"/><path class="cls-2" d="M206.53 90.45l-.24 2.26c0 .09-1.26 9.86 3.92 15.78 2.69 3.07 6.73 4.63 12 4.63h1.67l.29 1.64c.29 1.62 6.84 39.93-8 54.15-12.3 11.81-30.41 23.35-35.44 26.48l-.54 2.18-1.53-.91-1.53.92-.55-2.19c-5-3.12-23.15-14.67-35.44-26.48-14.81-14.22-8.26-52.52-8-54.15l.29-1.64h1.67c5.3 0 9.35-1.56 12-4.64 5.19-6 3.92-15.67 3.9-15.77l-.31-2.26h55.73m-4.35 4h-47c.12 3.73-.3 11.25-5 16.66-3.16 3.63-7.64 5.63-13.32 6-1.06 7.32-4.65 37.75 7.06 49 12 11.52 29.78 22.86 34.76 26 5-3.09 22.75-14.42 34.76-26 11.71-11.24 8.12-41.67 7.06-49-5.68-.33-10.16-2.33-13.32-6-4.72-5.41-5.14-12.94-5-16.66m5.13-4.68H150l.11.8.31 2.26c0 .09 1.21 9.53-3.74 15.21-2.55 2.92-6.42 4.4-11.51 4.4h-2.26l-.1.58-.29 1.64c-.29 1.64-6.88 40.32 8.18 54.77 12.12 11.63 29.79 23 35.31 26.42l.48 1.91.23.92.81-.49 1.17-.71 1.17.7.81.48.23-.92.47-1.9c5.52-3.44 23.19-14.78 35.31-26.42 15.06-14.46 8.47-53.13 8.18-54.77l-.29-1.64-.1-.58h-2.26c-5.08 0-8.95-1.48-11.49-4.39-4.92-5.63-3.73-15.14-3.73-15.24l.24-2.28.08-.77zm-51.37 5.38h45.52c0 4.16.65 11.2 5.2 16.42 3.18 3.65 7.63 5.72 13.24 6.16a129.62 129.62 0 0 1 1.17 22.34c-.54 12.27-3.26 20.84-8.1 25.49-11.64 11.17-28.72 22.17-34.27 25.63-5.55-3.46-22.64-14.46-34.27-25.63-4.84-4.65-7.57-13.22-8.1-25.49a129.61 129.61 0 0 1 1.17-22.34c5.6-.44 10.05-2.51 13.24-6.16 4.55-5.22 5.25-12.26 5.2-16.42z"/><path class="cls-2" d="M177.81 194.48V91.73a58.56 58.56 0 1 0-43.6 56.69l.34-.09 1.2 4.52-.34.09a63.32 63.32 0 1 1 47.09-61.21v102.75z"/><path class="cls-2" d="M119.18 28.77a63 63 0 0 1 63 63v102.36h-4V91.73a58.91 58.91 0 1 0-43.86 57l1 3.85a63 63 0 1 1-16.14-123.81m0-.7a63.66 63.66 0 1 0 16.31 125.21l.68-.18-.18-.68-1-3.85-.18-.68-.68.18a58.29 58.29 0 1 1 43.34-56.35v103.11h5.38V91.73a63.73 63.73 0 0 0-63.66-63.66z"/><path class="cls-2" d="M119.18 133.73a42 42 0 1 1 42-42v.35h-4.68v-.35a37.28 37.28 0 1 0-22.79 34.38l.29-.11 1.82 4.31-.32.14a41.73 41.73 0 0 1-16.32 3.28z"/><path class="cls-2" d="M119.18 50.09a41.69 41.69 0 0 1 41.65 41.65h-4a37.63 37.63 0 1 0-23 34.71l1.55 3.67a41.65 41.65 0 1 1-16.21-80m0-.7a42.35 42.35 0 1 0 16.48 81.36l.64-.27-.27-.64-1.55-3.67-.27-.64-.64.27a37 37 0 1 1 22.58-34.06v.7h5.38v-.7a42.39 42.39 0 0 0-42.35-42.35z"/><path class="cls-2" d="M112.81 109.95v-6.7h-5v-4.51h5v-2.62h-5v-4.51h5V73.92h13.38c3.85 0 7 1 9.23 3a10.2 10.2 0 0 1 3.45 8.08c0 3.53-1.11 6.3-3.31 8.23s-5.31 2.9-9.29 2.91h-8.12v2.62h8.13v4.51h-8.13v6.7zm13.38-18.34a8 8 0 0 0 5.49-1.68 6.31 6.31 0 0 0 1.85-4.93 6.22 6.22 0 0 0-1.93-4.74 7.52 7.52 0 0 0-5.27-1.84h-8.19v13.19z"/><path class="cls-2" d="M126.19 74.27q5.68 0 9 2.89a9.82 9.82 0 0 1 3.33 7.84q0 5.17-3.19 8t-9.06 2.83h-8.47v3.32h8.13v3.81h-8.13v6.7h-4.63v-6.7h-5v-3.87h5v-3.32h-5V92h5V74.27h13M117.8 92h8.4a8.27 8.27 0 0 0 5.73-1.77 6.62 6.62 0 0 0 2-5.18 6.52 6.52 0 0 0-2-5 7.82 7.82 0 0 0-5.51-1.93h-8.62V92m8.4-18.39h-13.74v17.65h-5v5.21h5v1.92h-5v5.21h5v6.7h6v-6.7h8.13v-5.21h-8.09v-1.92h7.77c4.07 0 7.28-1 9.52-3s3.43-4.86 3.43-8.5a10.53 10.53 0 0 0-3.56-8.34c-2.34-2-5.52-3.06-9.46-3.06zm-7.7 5.21h7.84a7.18 7.18 0 0 1 5 1.74 5.8 5.8 0 0 1 1.84 4.44 5.91 5.91 0 0 1-1.73 4.66 7.65 7.65 0 0 1-5.26 1.59h-7.7V78.78zM69.11 94.07h-.28a2.34 2.34 0 0 1-2-2.6C69.13 71.72 76.25 57.3 88 48.6a46.87 46.87 0 0 1 28-8.94 39.07 39.07 0 0 1 6.26.44 2.34 2.34 0 0 1-.4 4.64 2.39 2.39 0 0 1-.41 0 35.1 35.1 0 0 0-5.28-.34c-5.51 0-16.14 1-25.5 8C80.1 60.29 73.62 73.62 71.43 92a2.34 2.34 0 0 1-2.32 2.07z"/><path class="cls-2" d="M116 40a38.51 38.51 0 0 1 6.2.44 2 2 0 0 1-.34 4 2 2 0 0 1-.35 0 35.55 35.55 0 0 0-5.31-.44c-6.11 0-16.47 1.2-25.7 8.08C79.81 60.07 73.28 73.48 71.08 92a2 2 0 0 1-2 1.75h-.24a2 2 0 0 1-1.74-2.21c2.33-19.64 9.41-34 21-42.62A46.82 46.82 0 0 1 116 40m0-.7a47.21 47.21 0 0 0-28.28 9c-11.79 8.76-19 23.26-21.31 43.1a2.69 2.69 0 0 0 2.35 3h.32a2.69 2.69 0 0 0 2.67-2.37C74 73.76 80.39 60.51 90.92 52.67c9.27-6.91 19.82-7.94 25.29-7.94a34.87 34.87 0 0 1 5.22.34 2.72 2.72 0 0 0 .47 0 2.69 2.69 0 0 0 .46-5.34 39.35 39.35 0 0 0-6.32-.45zm17.24 97.04h90.92v4.68h-90.92z"/><path class="cls-2" d="M223.81 136.69v4h-90.22v-4h90.22m.7-.7h-91.62v5.38h91.62V136z"/></g></g></svg>