<svg xmlns="http://www.w3.org/2000/svg" viewBox="0 0 84.45 76.02"><defs><style>.cls-1{fill:#c9a399}</style></defs><title>eac</title><g id="Слой_2" data-name="Слой 2"><g id="Слой_1-2" data-name="Слой 1"><path class="cls-1" d="M19.6 0H1.1A1.1 1.1 0 0 0 0 1.1v73.82A1.1 1.1 0 0 0 1.1 76h18.5a1.1 1.1 0 0 0 1.1-1.1v-8.5a1.1 1.1 0 0 0-1.1-1.1h-8.9V44.23h8.9a1.1 1.1 0 0 0 1.1-1.1v-8.5a1.1 1.1 0 0 0-1.1-1.1h-8.9V10.7h8.9a1.1 1.1 0 0 0 1.1-1.1V1.1A1.1 1.1 0 0 0 19.6 0zm-1.1 8.5H9.6a1.1 1.1 0 0 0-1.1 1.1v25a1.1 1.1 0 0 0 1.1 1.1h8.9V42H9.6a1.1 1.1 0 0 0-1.1 1.1v23.32a1.1 1.1 0 0 0 1.1 1.1h8.9v6.3H2.2V2.2h16.3zM36.6 36h11.07a1.1 1.1 0 0 0 1.1-1.1V9.6a1.1 1.1 0 0 0-1.1-1.1H36.6a1.1 1.1 0 0 0-1.1 1.1v25.25A1.1 1.1 0 0 0 36.6 36zm1.1-25.3h8.87v23H37.7z"/><path class="cls-1" d="M56.17 0H28.1A1.1 1.1 0 0 0 27 1.1v73.82A1.1 1.1 0 0 0 28.1 76h8.5a1.1 1.1 0 0 0 1.1-1.1V44.45h8.87v30.47a1.1 1.1 0 0 0 1.1 1.1h8.5a1.1 1.1 0 0 0 1.1-1.1V1.1a1.1 1.1 0 0 0-1.1-1.1zm-1.1 73.82h-6.3V43.35a1.1 1.1 0 0 0-1.1-1.1H36.6a1.1 1.1 0 0 0-1.1 1.1v30.47h-6.3V2.2h25.87zM83.35 10.7a1.1 1.1 0 0 0 1.1-1.1V1.1a1.1 1.1 0 0 0-1.1-1.1h-18.5a1.1 1.1 0 0 0-1.1 1.1v73.82a1.1 1.1 0 0 0 1.1 1.1h18.5a1.1 1.1 0 0 0 1.1-1.1v-8.5a1.1 1.1 0 0 0-1.1-1.1h-8.9V10.7zm-10 56.82h8.9v6.3h-16.3V2.2h16.3v6.3h-8.9a1.1 1.1 0 0 0-1.1 1.1v56.82a1.1 1.1 0 0 0 1.1 1.1z"/></g></g></svg>