<svg xmlns="http://www.w3.org/2000/svg" viewBox="0 0 112.88 112.99"><title>Ресурс 5</title><path fill="#cfaa9d" d="M52.11 0h8.61c.62.14 1.23.32 1.85.41q35.4 5.1 47.5 38.77c1.38 3.85 1.9 8 2.81 12v10.55c-.15.69-.36 1.36-.45 2.06a56.5 56.5 0 0 1-63 48.77c-25.24-3.09-45.9-23.43-49-48.22C-2.81 37.89 11.56 13.19 35.93 4c5.16-1.95 10.77-2.7 16.18-4zm4.25 6.9a49.64 49.64 0 1 0 49.71 49.53A49.66 49.66 0 0 0 56.36 6.9z"/><path fill="#cfaa9d" d="M56.28 64.93c10.79.28 19.62 4.22 26.13 12.87a15.11 15.11 0 0 1 1.07 1.58c1.17 2.08.89 4.1-.69 5.11s-3.63.6-5-1.36A24.76 24.76 0 0 0 63.53 73a26 26 0 0 0-28.19 9.78c-1.71 2.31-3.72 2.91-5.46 1.63s-1.73-3.28-.15-5.55c6.45-9.32 15.54-13.57 26.55-13.93zM38.86 47.36a6.19 6.19 0 0 1-6.18-6 6.1 6.1 0 0 1 12.2-.16 6.19 6.19 0 0 1-6.02 6.16zm35.19 0A6.19 6.19 0 0 1 68 41.29a6.1 6.1 0 1 1 6.1 6.07z"/></svg>