<svg id="Слой_1" data-name="Слой 1" xmlns="http://www.w3.org/2000/svg" viewBox="0 0 48.84 48.84"><defs><style>.cls-1{fill:#5e6f80}</style></defs><title>иконки электрастайл</title><path class="cls-1" d="M30.37 19.63v-.25h-2.88c-.12 0-.19 0-.22-.05s-.05-.1-.05-.21v-.05c0-.54 0-.54.58-.54h2.53v-5.6a26.49 26.49 0 0 0-4.27 0h-.19l-.64.07a7.24 7.24 0 0 0-1.15.25 3.7 3.7 0 0 0-2.24 1.85 6.85 6.85 0 0 0-.53 3.42v.59a.38.38 0 0 1-.06.26.3.3 0 0 1-.22 0H19v5.9h2.23a.32.32 0 0 1 .05.21v8.24h6v-8.21a.28.28 0 0 1 .05-.2H30v-.11c0-.12 0-.23.05-.35s.06-.48.08-.71v-.47a27.59 27.59 0 0 1 .33-4s-.05-.05-.09-.04zm-4.28 4.55v8.39a.39.39 0 0 1-.26.06h-3.22a.37.37 0 0 1-.22 0 .38.38 0 0 1 0-.23v-8.22h-2.13a.31.31 0 0 1 0-.2v-3.44a.26.26 0 0 1 .18 0h2v-2.77a5.09 5.09 0 0 1 .34-1.92 2.51 2.51 0 0 1 1.74-1.5 9.78 9.78 0 0 1 1.83-.23H29a.28.28 0 0 1 .16 0 .32.32 0 0 1 0 .17v3a.34.34 0 0 1 0 .18.4.4 0 0 1-.2 0h-1.43a1.33 1.33 0 0 0-1.39 1.24v.18c0 .15 0 .31-.05.48s0 .43 0 .66v.43h3.14a.33.33 0 0 1 0 .22c-.08.83-.15 1.66-.22 2.49v.7a.28.28 0 0 1-.06.21s-.11 0-.21.06h-2.65z"/><g class="cls-2"><path class="cls-1" d="M24.16 48.29L.57 31.46 8.78 4h30.4l8.73 26.07zM1.74 31.06L24.13 47l22.61-17.29L38.46 5H9.53z"/></g></svg>