<svg id="Слой_1" data-name="Слой 1" xmlns="http://www.w3.org/2000/svg" viewBox="0 0 49.31 49.31"><defs><style>.cls-1{fill:#fff}.cls-2{fill:#5e6b76}</style></defs><title>иконки электрастайл</title><path class="cls-1" d="M1.12 31.61l8-26.76h29.66l8.5 25.4-23.17 17.77L1.12 31.61z"/><path class="cls-2" d="M29.63 20v-.25h-3.1a.35.35 0 0 1-.05-.22v-.05c0-.54 0-.54.58-.54h2.53v-5.6a27.69 27.69 0 0 0-4.27 0h-.16l-.67.08a5.54 5.54 0 0 0-1.15.25 3.66 3.66 0 0 0-2.24 1.85 6.81 6.81 0 0 0-.53 3.41v.59c0 .19 0 .23-.05.26s-.11.05-.22 0h-2v5.9h2.23a.37.37 0 0 1 .05.22v8.24h6v-8.27a.32.32 0 0 1 .05-.21h2.68v-.46c0-.11.06-.48.08-.71v-.48a29.61 29.61 0 0 1 .33-4 .08.08 0 0 1-.09-.01zm-4.28 4.56v8.08c0 .16 0 .25-.06.29A.49.49 0 0 1 25 33h-3.34c-.03 0-.05-.1-.05-.22v-8.24h-2.13c-.03 0 0-.09 0-.19V21.1a.37.37 0 0 1 0-.2h2.13v-2.76a5.31 5.31 0 0 1 .39-2 2.5 2.5 0 0 1 1.74-1.49 9 9 0 0 1 1.84-.23h2.91c.02 0 0 .08 0 .17v3.18c0 .02-.09 0-.2 0h-1.47A1.34 1.34 0 0 0 25.4 19v.18c0 .16 0 .32-.05.48s0 .43 0 .66v.43h2.92a.34.34 0 0 1 .23.05v.22c-.08.82-.16 1.65-.22 2.48a5 5 0 0 0 0 .54v.17a.29.29 0 0 1-.06.21.28.28 0 0 1-.21.05h-2.66z"/></svg>