<svg xmlns="http://www.w3.org/2000/svg" viewBox="0 0 11.4 20.9"><path class="st0" d="M11.3 6.7v-.2h-3c0-.1-.1-.1 0-.2 0-.5 0-.5.6-.5h2.5V.1C9.9 0 8.4 0 7 .1h-.1l-.7.1c-.4 0-.8.1-1.2.2-1 .3-1.8 1-2.2 1.9-.5 1-.6 2.2-.5 3.4v.9c0 .1-.1 0-.2 0H0v5.9h2.2c0 .1.1.1 0 .2v8.2h6v-8.4H11V12c0-.2.1-.5.1-.7v-.5c0-1.4.1-2.7.2-4.1.1.1.1.1 0 0zM7 11.3v8.1c0 .2 0 .3-.1.3-.1.1-.2.1-.3.1H3.4v-8.4H1.2V7.7h2.2V4.9c0-.7.1-1.4.4-2 .3-.7 1-1.3 1.7-1.5.5-.1 1.2-.2 1.8-.2h2.9c.1 0 0 .1 0 .2v3.2H8.5c-.7-.1-1.3.4-1.4 1.1v1.8h3.1v.2c-.1.9-.2 1.7-.2 2.5v.8c0 .1 0 .2-.1.2s-.1.1-.2 0l-2.7.1z"/></svg>