<svg id="Слой_1" data-name="Слой 1" xmlns="http://www.w3.org/2000/svg" viewBox="0 0 35 35"><defs><style>.cls-1{fill:#fff}</style></defs><title>иконки электрастайл</title><path class="cls-1" d="M22.06 9.32a5 5 0 0 0-8.36-2.15l-.86.83-.73-.74a5 5 0 0 0-3.29-1.58h-.69L8 5.69A8.68 8.68 0 0 0 6.7 6a5 5 0 0 0-1.79 8.19c2.46 2.48 4.94 4.93 7.4 7.39a.69.69 0 0 0 1 0l7.41-7.37a4.88 4.88 0 0 0 1.32-2.31c.07-.3.11-.6.16-.91v-.63c-.01-.36-.05-.71-.14-1.04zM4.77 10.83a3.55 3.55 0 0 1 2.57-3.64 3.47 3.47 0 0 1 3.66.87l1 1-4.61 5.68-1.49-1.49a3.62 3.62 0 0 1-1.13-2.42zM13 20l-.15.19-.16-.19-4.23-4.2 4.38-5.36 4.34 5.4zm6.9-6.89c-.37.4-.77.78-1.16 1.17l-.5.5-4.56-5.69c.35-.35.7-.71 1.06-1.05a3.49 3.49 0 0 1 3.56-.87 3.48 3.48 0 0 1 2.51 2.66 3.41 3.41 0 0 1-.9 3.28z"/></svg>