<svg id="Слой_1" xmlns="http://www.w3.org/2000/svg" viewBox="0 0 18 17.9"><style>.st0{fill:#cfaa9d}</style><title>иконки электрастайл</title><path class="st0" d="M17.9 4.4c0 .5.1 1 .1 1.6v6c0 .7 0 1.4-.2 2-.3 1.3-1.2 2.4-2.3 3.1-1.3.7-2.9 1-4.4.9H6.8c-1 0-1.9 0-2.9-.3-1.8-.5-3.3-1.9-3.8-3.8-.1-.6-.1-1.3-.1-2V6.4C0 5.6 0 4.8.2 4 .8 1.4 3.4 0 6 0h5.6c.6 0 1.3 0 1.9.1 1.3.3 2.4.9 3.3 1.9.5.7.9 1.5 1.1 2.4zM16.6 9V5c0-.9-.4-1.7-1-2.4-.8-.8-1.8-1.2-2.9-1.2H5.4c-.8 0-1.7.2-2.4.7-1 .5-1.6 1.6-1.6 2.7v8.4c0 .5.1 1 .4 1.4.7 1.3 2.2 2.1 3.7 2.1h6.8c.4 0 .8 0 1.2-.1 1.8-.3 3.1-1.7 3.2-3.5-.1-1.5-.1-2.8-.1-4.1z"/><path class="st0" d="M13.2 8.7c-.1 2.3-2.1 4.1-4.4 4-2.2-.1-3.9-1.8-4-4 .1-2.3 2.1-4.1 4.4-4 2.2.1 3.9 1.8 4 4zm-7 0c-.1 1.5 1.1 2.8 2.6 2.8h.3c1.5.1 2.8-1 2.9-2.5v-.3c-.1-1.6-1.5-2.8-3-2.7-1.6 0-2.7 1.2-2.8 2.7zM13.7 5c-.5-.1-.8-.4-.9-.9.1-.4.4-.8.8-.9.5.1.8.4.9.9 0 .5-.3.8-.8.9z"/></svg>