<svg id="Слой_1" data-name="Слой 1" xmlns="http://www.w3.org/2000/svg" viewBox="0 0 49 49"><defs><style>.cls-1{fill:#fff}.cls-2{fill:#cfaa9d}</style></defs><title>иконки электрастайл</title><path class="cls-1" d="M1.64 30.61l8-26.76h29.67l8.5 25.4-23.18 17.77L1.64 30.61z"/><path class="cls-2" d="M33.5 18.35a9.27 9.27 0 0 1 .12 1.6v6a8.78 8.78 0 0 1-.16 2.05 5.17 5.17 0 0 1-2.3 3.08 7.9 7.9 0 0 1-4.36.9h-4.35a10.39 10.39 0 0 1-2.89-.27 5.31 5.31 0 0 1-3.76-3.8 8.64 8.64 0 0 1-.15-2v-5.49a10.07 10.07 0 0 1 .18-2.42c.64-2.61 3.24-4 5.79-4h5.56a11.36 11.36 0 0 1 1.94.11A5.8 5.8 0 0 1 32.4 16a4.71 4.71 0 0 1 1.1 2.35zM32.27 23v-4a3.27 3.27 0 0 0-1-2.37 4 4 0 0 0-2.89-1.24H21.1a4.47 4.47 0 0 0-2.49.67A3.27 3.27 0 0 0 17 18.8v8.35a2.74 2.74 0 0 0 .37 1.4 4 4 0 0 0 3.71 2.06h6.81a6.35 6.35 0 0 0 1.23-.07A3.69 3.69 0 0 0 32.28 27c-.02-1.37-.01-2.7-.01-4z"/><path class="cls-2" d="M28.84 22.67a4.2 4.2 0 0 1-8.39 0 4.2 4.2 0 0 1 8.39 0zm-7 0a2.71 2.71 0 0 0 2.87 2.81 2.71 2.71 0 0 0 2.88-2.82 2.88 2.88 0 0 0-5.75 0zM29.36 19a1 1 0 0 1-.87-.89 1.1 1.1 0 0 1 .84-.89 1.06 1.06 0 0 1 .89.87 1 1 0 0 1-.86.91z"/></svg>