<svg id="Слой_1" data-name="Слой 1" xmlns="http://www.w3.org/2000/svg" viewBox="0 0 49 49"><defs><style>.cls-1{fill:#cfaa9d}</style></defs><title>иконки электрастайл</title><path class="cls-1" d="M33.5 18a9.34 9.34 0 0 1 .12 1.6v6a8.87 8.87 0 0 1-.16 2.06 5.12 5.12 0 0 1-2.3 3.07 7.82 7.82 0 0 1-4.36.91h-4.35a10.78 10.78 0 0 1-2.89-.26 5.35 5.35 0 0 1-3.76-3.8 8.68 8.68 0 0 1-.15-2v-5.51a10.07 10.07 0 0 1 .19-2.39c.64-2.61 3.24-4 5.79-4h5.56a11.36 11.36 0 0 1 1.94.11 5.86 5.86 0 0 1 3.28 1.85A4.75 4.75 0 0 1 33.5 18zm-1.23 4.63v-4a3.25 3.25 0 0 0-1-2.36A3.92 3.92 0 0 0 28.43 15h-7.28a4.47 4.47 0 0 0-2.49.67A3.24 3.24 0 0 0 17 18.44v8.36a2.77 2.77 0 0 0 .37 1.4 4 4 0 0 0 3.71 2.06h6.81a6.36 6.36 0 0 0 1.23-.08 3.67 3.67 0 0 0 3.16-3.58c-.02-1.33-.01-2.66-.01-3.98z"/><path class="cls-1" d="M28.84 22.32a4.26 4.26 0 0 1-4.17 4.11 4.21 4.21 0 0 1-4.22-4.15 4.2 4.2 0 0 1 8.39 0zm-7 0a2.72 2.72 0 0 0 2.87 2.81 2.72 2.72 0 0 0 2.88-2.82 2.88 2.88 0 0 0-5.75 0zm7.52-3.65a1 1 0 0 1-.87-.89 1.1 1.1 0 0 1 .84-.89 1.06 1.06 0 0 1 .89.88 1 1 0 0 1-.86.9z"/><g class="cls-2"><path class="cls-1" d="M24.64 47.29L1.06 30.46 9.27 3h30.4l8.73 26.07zM2.22 30.06l22.4 16 22.6-17.33L39 4H10z"/></g></svg>