<svg id="Слой_1" data-name="Слой 1" xmlns="http://www.w3.org/2000/svg" viewBox="0 0 84.92 88.71"><defs><style>.cls-1{fill:#cfaa9d}</style></defs><title>иконки электрастайл</title><path class="cls-1" d="M19.82 78.74c-1.19-.64-2.31-1.24-2.31-2.32s.77-1.52 1.83-1.52a3.11 3.11 0 0 1 2.85 1.9l-.08-2.21a7.13 7.13 0 0 0-2.61-.44c-2.37 0-3.93 1-3.93 2.75s1.41 2.42 2.77 3.17c1.18.64 2.21 1.27 2.21 2.4s-1.05 1.68-2.32 1.68a4.51 4.51 0 0 1-2.94-1.09l-.22.19A4 4 0 0 0 18.74 85c2.17 0 3.9-.94 3.9-2.94 0-1.74-1.43-2.57-2.82-3.32zm5.69-4.39l-.08 2.12h.07c.23-1.07 1.34-1.36 2.5-1.36.85 0 1.28.13 1.28.85v8.84h2.54c-.38 0-.43-1.06-.43-1.32V76c0-.72.42-.85 1.26-.85 1.16 0 2.28.29 2.51 1.36h.05l-.09-2.12zm19.56 1.46l-2.26 3.72-2.42-3.88a4 4 0 0 1-.62-1.3h-2.62a20 20 0 0 1 1.56 2.33l2.52 4v4.1h2.54c-.38 0-.43-1.11-.43-1.36V82.2a5.23 5.23 0 0 1 .3-2 6 6 0 0 1 .53-1l2-3.33a7.89 7.89 0 0 1 1.08-1.48h-1.6a3.45 3.45 0 0 1-.58 1.42zM55 84h-.66c-1 0-1.5 0-1.5-.57v-9.08h-2.39v.06a2.52 2.52 0 0 1 .27 1.1v9.29H58l.13-2.06h-.05C57.62 83.77 56.56 84 55 84zm10.39 0h-.94c-.68 0-1.2 0-1.2-.48v-3.8h1.66c.62 0 2 0 2.13.59v-1.62c-.12.21-1.5.26-1.88.26h-1.91v-3.84h1.66c1.55 0 2.46.4 2.68 1.18h.06l-.13-1.94h-6.66v.06a2.52 2.52 0 0 1 .27 1.1v9.29h6.94l.11-2h-.06c-.37.81-.98 1.2-2.73 1.2zM2.27 69.64H9.2l.12-2h-.07c-.36.82-1 1.23-2.72 1.23h-.94c-.68 0-1.2 0-1.2-.48v-3.83h1.66c.62 0 2 0 2.12.6h.05v-1.63h-.05c-.11.21-1.49.25-1.87.25H4.39v-3.84h1.66c1.54 0 2.46.41 2.67 1.18h.07l-.13-1.94H2v.06a2.59 2.59 0 0 1 .27 1.11zm18.36 0l.13-2.06h-.05c-.5 1-1.56 1.27-3.12 1.27h-.66c-.95 0-1.5 0-1.5-.57v-9.1H13v.06a2.59 2.59 0 0 1 .27 1.11v9.29zm10.03 0l.11-2h-.06c-.37.82-1 1.23-2.73 1.23H27c-.68 0-1.2 0-1.2-.48v-3.83h1.7c.62 0 2 0 2.13.6h.05v-1.63h-.05c-.12.21-1.5.25-1.88.25h-1.91v-3.84h1.66c1.54 0 2.46.41 2.67 1.18h.07l-.13-1.94h-6.66v.06a2.59 2.59 0 0 1 .27 1.11v9.29zm13.56-1.29l-.22-.23a5.29 5.29 0 0 1-2.93.77 4.49 4.49 0 0 1-4.83-4.79c0-2.42 1.21-4.35 4-4.35a4.2 4.2 0 0 1 3.82 2L44 59.54a10.06 10.06 0 0 0-3.61-.54c-3.74 0-6.48 1.88-6.48 5.38s2.71 5.45 6.18 5.45a5.52 5.52 0 0 0 4.13-1.48zm6.36 1.29h2.54c-.39 0-.44-1.06-.44-1.31V60.8c0-.72.42-.86 1.27-.86 1.16 0 2.27.29 2.5 1.36l-.08-2.12h-9.56l-.08 2.12h.06c.24-1.07 1.35-1.36 2.51-1.36.85 0 1.28.14 1.28.86zm14.28-5.01c1.51-.38 2.74-1.19 2.74-2.74 0-2-1.79-2.71-4.23-2.71h-3.59v.06a2.56 2.56 0 0 1 .22 1.11v9.29h2.6c-.38 0-.43-1.1-.43-1.36V64.9a2.82 2.82 0 0 1 2.23 1.63l.64 1c.43.69.88 1.39 1.26 2.08h2.81c-1.03-.33-2.57-4.29-4.25-4.98zm-1.58-.34a1.7 1.7 0 0 1-1.11-.29v-4a7.31 7.31 0 0 1 .91-.06c1.51 0 2.28.75 2.28 2.15a2 2 0 0 1-2.08 2.2zm17.18 2.94l-.4-.89c.21-.07.43-.14.64-.19a4.27 4.27 0 0 1 2 0 2.92 2.92 0 0 0-2-1 4 4 0 0 0-1.14.12l-2.9-6.36h-.79l-4.2 9a19.52 19.52 0 0 1-.9 1.78h1.72c-.33-.1-.09-.67.19-1.28l3-6.74 2 4.29a10.43 10.43 0 0 1-1 .3 4.14 4.14 0 0 1-2 0 2.92 2.92 0 0 0 2 1 4.66 4.66 0 0 0 1.51-.2l1.22 2.68H82c-.48-.27-1.24-1.86-1.54-2.51zM2.27 79.11h9.3v.81h-9.3zm69.71 0h9.29v.81h-9.29zM44 48.32l-2.23-2.88-2.24 2.88 2.23 2.88L44 48.32zm19.9-14.45l3.43-1.24-2.05-3.02-3.43 1.24 2.05 3.02zM57.68 6.22l-.12-3.64-3.5 1.01.11 3.65 3.51-1.02zM29.46 3.6l-3.5-1.02-.12 3.65 3.51 1.01.11-3.64zm-7.78 27.26l-3.43-1.24-2.04 3.02 3.43 1.24 2.04-3.02zM37.21 12.8a5.1 5.1 0 0 0 4.56-2.12c2.09-3 1.33-8.11 4.55-8.11 1.88 0 3.41 1.13 3.41 4.55 0 2.27-1.14 4.55-4.55 4.55A8.73 8.73 0 0 0 47.45 6a1.14 1.14 0 1 0-2.27 0 9.26 9.26 0 0 1-3 6.82h4.09a5.69 5.69 0 0 0 0-11.37 5.1 5.1 0 0 0-4.56 2.12c-2.09 3-1.33 8.12-4.55 8.12-1.88 0-3.41-1.14-3.41-4.55 0-2.28 1.14-4.55 4.55-4.55a8.69 8.69 0 0 0-2.27 5.68 1.14 1.14 0 1 0 2.27 0 9.26 9.26 0 0 1 3-6.84h-4.09a5.69 5.69 0 0 0 0 11.37zm14.1 3.63a5.08 5.08 0 0 0 3.43 3.67c3.5 1.06 8.13-1.24 9.12 1.82.59 1.79 0 3.59-3.27 4.65-2.16.7-4.68.33-5.73-2.92a8.67 8.67 0 0 0 6.11.4 1.14 1.14 0 0 0-.7-2.16 9.28 9.28 0 0 1-7.41-.7l1.27 3.89A5.69 5.69 0 0 0 65 21.56a5.11 5.11 0 0 0-3.43-3.67c-3.5-1.06-8.13 1.25-9.13-1.81-.58-1.79 0-3.6 3.27-4.66 2.17-.7 4.68-.32 5.74 2.92a8.69 8.69 0 0 0-6.11-.4A1.14 1.14 0 0 0 56 16.1a9.25 9.25 0 0 1 7.4.7l-1.26-3.89a5.69 5.69 0 1 0-10.82 3.52zm8.86 15.78A5.68 5.68 0 0 0 52.23 31a5.1 5.1 0 0 0-2.44 4.39c.08 3.66 3.7 7.35 1.1 9.24-1.52 1.11-3.43 1.09-5.44-1.67-1.33-1.84-1.75-4.35 1-6.36A8.73 8.73 0 0 0 48 42.5a1.14 1.14 0 0 0 1.84-1.34 9.29 9.29 0 0 1-1.63-7.25l-3.3 2.4a5.69 5.69 0 1 0 6.69 9.2 5.07 5.07 0 0 0 2.4-4.39c-.07-3.66-3.7-7.35-1.1-9.24 1.53-1.11 3.43-1.09 5.44 1.67 1.34 1.84 1.76 4.35-1 6.35a8.68 8.68 0 0 0-1.52-5.9A1.14 1.14 0 1 0 54 35.31a9.24 9.24 0 0 1 1.63 7.25l3.31-2.41a5.68 5.68 0 0 0 1.23-7.94zM37 40.67a1.14 1.14 0 0 0-1.85-1.33 9.22 9.22 0 0 1-6.39 3.79L32 45.54a5.69 5.69 0 0 0 6.67-9.22 5.07 5.07 0 0 0-4.93-1c-3.45 1.2-5.84 5.79-8.44 3.9-1.53-1.1-2.1-2.92-.1-5.68 1.34-1.85 3.59-3 6.36-1a8.71 8.71 0 0 0-5.18 3.27 1.14 1.14 0 0 0 1.84 1.34 9.29 9.29 0 0 1 6.4-3.8L31.32 31a5.69 5.69 0 0 0-6.67 9.21 5.1 5.1 0 0 0 4.93 1c3.45-1.21 5.84-5.8 8.45-3.91 1.52 1.11 2.09 2.93.09 5.69-1.33 1.84-3.59 3-6.35 1A8.73 8.73 0 0 0 37 40.67zM22.25 28.78a5.7 5.7 0 0 0 7.16-3.67 5.11 5.11 0 0 0-.62-5c-2.22-2.91-7.32-3.76-6.33-6.82.58-1.79 2.13-2.9 5.38-1.85 2.16.7 4 2.48 2.93 5.73a8.68 8.68 0 0 0-4.71-3.92 1.14 1.14 0 0 0-.7 2.17A9.28 9.28 0 0 1 31 20.35l1.25-3.9A5.68 5.68 0 1 0 21.38 13a5.06 5.06 0 0 0 .62 5c2.21 2.91 7.31 3.76 6.32 6.83-.58 1.79-2.13 2.89-5.38 1.84-2.16-.7-4-2.48-2.93-5.72a8.73 8.73 0 0 0 4.72 3.91 1.14 1.14 0 0 0 .7-2.17 9.28 9.28 0 0 1-5.59-4.9l-1.26 3.89a5.7 5.7 0 0 0 3.67 7.1zM39.83 18.7c1.55 0 2.46.4 2.68 1.18h.06l-.13-1.94h-6.65V18a2.64 2.64 0 0 1 .26 1.1v9.29H43l.11-2H43c-.37.83-1 1.23-2.72 1.23h-1c-.68 0-1.2-.05-1.2-.48v-3.83h2.35a4.38 4.38 0 0 1 0-.52 2.64 2.64 0 0 1 0-.29h-2.26v-3.8z"/><path class="cls-1" d="M48.08 28c0-1.72-1.42-2.56-2.82-3.3C44.07 24 43 23.42 43 22.34s.76-1.52 1.82-1.52a3.13 3.13 0 0 1 2.86 1.9l-.09-2.21a7.11 7.11 0 0 0-2.6-.44c-2.38 0-3.94 1-3.94 2.75s1.41 2.42 2.77 3.17c1.18.64 2.18 1.27 2.18 2.4s-1 1.67-2.32 1.67a4.53 4.53 0 0 1-2.67-.89h-.49a4 4 0 0 0 3.62 1.73c2.22 0 3.94-.9 3.94-2.9z"/></svg>