<svg xmlns="http://www.w3.org/2000/svg" viewBox="0 0 104.78 173.75"><title>Ресурс 4</title><path d="M104.78 87.13v70.2c0 9.68-6.68 16.4-16.4 16.4H16.66C6.78 173.73 0 166.92 0 157V16.92C0 8.2 5 1.92 13.14.29A19 19 0 0 1 16.91 0H88c10 0 16.74 6.78 16.74 16.76q.05 35.18.04 70.37zm-9.53-53.38H9.58v95h85.67zM9.5 138.48v18.92a6.46 6.46 0 0 0 6.86 6.82h72.32c4 0 6.6-2.62 6.6-6.67v-19.07zM95.29 24v-7.28c0-4.62-2.61-7.2-7.26-7.2H15.7a6.23 6.23 0 0 0-6.09 5.51c-.23 2.94 0 5.92 0 9z"/><path d="M52.41 155.15h-7.88c-3 0-5.13-2-5.1-4.8s2.07-4.67 5.06-4.68h15.76c3 0 5.13 2 5.1 4.79s-2.09 4.67-5.06 4.69c-2.63.01-5.29 0-7.88 0z"/></svg>