<svg id="Слой_1" data-name="Слой 1" xmlns="http://www.w3.org/2000/svg" viewBox="0 0 48 46"><defs><style>.cls-1{fill:#fff}.cls-2{fill:#5f7081}</style></defs><title>иконки электрастайл</title><path class="cls-1" d="M8.92.15h29l9.66 27.5-24.5 18.33L.42 27.48 8.92.15z"/><path class="cls-2" d="M16.05 12.35l3.52 4.26-.1-3.87-.74-.21v-.16h1.87v.16l-.61.21-.13 5.39h-.18l-4-4.93.11 4.42.76.22V18h-2v-.15l.72-.22.08-4.84-.84-.27v-.16zm5.28 5.49l.78-.22v-4.9l-.78-.21v-.16h4.1v1.23h-.19c-.27-.72-.38-.88-1-.88H23v2.17h1.39l.21-.68h.17v1.71h-.18l-.2-.68H23v2.43h1.34c.77 0 .93 0 1.2-1.09h.2V18h-4.4zm7.05-5.49v.16l-.62.21.95 3.78 1.49-4.14h.14l1.53 4.14.91-3.78-.7-.21v-.16h1.68v.16l-.48.21-1.57 5.4h-.12l-1.54-4.24-1.62 4.24h-.14l-1.46-5.4-.52-.21v-.16zM9.67 27.84l.67-.22.29-4.85-.79-.26v-.16h1.57l1.89 4.23 1.88-4.23h1.56v.16l-.74.21.16 4.9.66.22V28h-2.17v-.15l.66-.22-.15-4.4L13.08 28H13l-2-4.71-.07 4.33.69.22V28H9.67zm7.99-2.64a2.92 2.92 0 0 1 3.1-3 2.61 2.61 0 0 1 2.83 2.84 2.93 2.93 0 0 1-3.06 3.05 2.71 2.71 0 0 1-2.87-2.89zm1-.05c0 1.62.84 2.66 2 2.66s2-1.08 2-2.64-.82-2.64-2-2.64-2.03 1.09-2.03 2.62zm5.71 2.69l.78-.22v-4.9l-.78-.21v-.16h2.42c1.66 0 3.18.49 3.18 2.66s-1.44 3-3.32 3h-2.28zm1.63-.22a4.25 4.25 0 0 0 .67.06c1.49 0 2.32-.87 2.32-2.62s-.72-2.42-2.31-2.42a4 4 0 0 0-.68.06zm4.75.22l.78-.22v-4.9l-.78-.21v-.16h4.1v1.23h-.2c-.26-.72-.37-.88-1-.88H32.4v2.17h1.4l.21-.68h.17v1.71H34l-.2-.68h-1.4v2.43h1.34c.78 0 .94 0 1.21-1.09h.2V28h-4.4zm5.25 0l.78-.22v-4.9l-.78-.21v-.16h2.43v.16l-.78.21v4.89H39c.81 0 1-.23 1.23-1.19h.2V28H36z"/></svg>