<svg xmlns="http://www.w3.org/2000/svg" viewBox="0 0 28.53 78.62"><defs><style>.cls-1{fill:#c9a399}</style></defs><title>mos</title><g id="Слой_2" data-name="Слой 2"><path class="cls-1" d="M27.43 61.42H25.2v-9.57a1.1 1.1 0 0 0-1.1-1.1h-3.4l-5.35-31.89a1 1 0 0 0-.06-.16h.35l4.22 1.61c.9.34 1.5-.08 1.5-1v-5.4a1.18 1.18 0 0 1 .24-.68c1.1-1.39 2.22-2.77 3.33-4.15.68-.84.48-1.51-.54-1.84-1.7-.54-3.4-1.08-5.1-1.64a1.12 1.12 0 0 1-.54-.41c-1-1.52-2-3.06-3-4.59A1 1 0 0 0 14 .56C12.9 2 11.84 3.53 10.76 5a1.06 1.06 0 0 1-.53.37c-1.76.49-3.52 1-5.28 1.44a1 1 0 0 0-.6 1.7C5.42 10 6.5 11.43 7.56 12.9a1.13 1.13 0 0 1 .2.65c-.07 1.8-.16 3.6-.26 5.4C7.45 20 8 20.4 9 20.07l4.26-1.4a1.06 1.06 0 0 0-.07.19L7.84 50.75H4.43a1.1 1.1 0 0 0-1.1 1.1v9.57H1.1a1.1 1.1 0 0 0-1.1 1.1v15a1.1 1.1 0 0 0 1.1 1.1h26.33a1.1 1.1 0 0 0 1.1-1.1v-15a1.1 1.1 0 0 0-1.1-1.1zM9.5 17.54c.07-1.49.16-3 .2-4.48a1.49 1.49 0 0 0-.26-.84c-.91-1.28-1.85-2.54-2.81-3.86l1.77-.5 2.78-.74a1.44 1.44 0 0 0 .86-.6c.81-1.16 1.65-2.3 2.47-3.44l.28-.37c.09.13.17.23.24.34.78 1.19 1.57 2.39 2.33 3.59a1.5 1.5 0 0 0 .86.66l4 1.29.42.14c-.09.13-.16.24-.24.33-.9 1.11-1.78 2.23-2.69 3.33a1.51 1.51 0 0 0-.36 1v4.7c-1.31-.5-2.61-1-3.87-1.49a2.64 2.64 0 0 0-2.11-.05c-1.28.48-2.6.87-3.94 1.31.07-.12.06-.22.07-.32zm16.83 58.88H2.2v-12.8h2.23a1.1 1.1 0 0 0 1.1-1.1V53h3.24a1.1 1.1 0 0 0 1.08-1l4.42-26.34L18.68 52a1.1 1.1 0 0 0 1.08.92H23v9.57a1.1 1.1 0 0 0 1.1 1.1h2.23z" id="Слой_1-2" data-name="Слой 1"/></g></svg>