<svg xmlns="http://www.w3.org/2000/svg" viewBox="0 0 168.43 168.43"><title>Ресурс 8</title><path d="M168.43 36.87c-.24 1.08-.45 2.17-.73 3.24a23.54 23.54 0 0 1-6.33 10.64q-50.52 50.48-101 101c-2.88 2.88-5.79 5.73-8.63 8.66a6.87 6.87 0 0 1-4.18 2q-20.74 2.92-41.49 5.92c-4 .58-6.55-2-6-6q3-20.73 5.92-41.48a6.92 6.92 0 0 1 2-4.18Q63 61.79 117.91 6.84a22.27 22.27 0 0 1 12.9-6.59 3.79 3.79 0 0 0 .74-.25h5.09a5.6 5.6 0 0 0 .87.3 21.63 21.63 0 0 1 12 6.06q6.33 6.24 12.57 12.57a22 22 0 0 1 5.66 10c.28 1.07.48 2.15.72 3.23zm-32.51 26.29l-30.36-30.37a8.24 8.24 0 0 0-.72.63q-44.32 44.31-88.62 88.66a3.88 3.88 0 0 0-1 2c-1.28 8.58-2.51 17.17-3.74 25.76-.38 2.65-.73 5.31-1.11 8.1.54 0 .9 0 1.25-.06 10.68-1.54 21.36-3.11 32.05-4.58a5.33 5.33 0 0 0 3.26-1.66q43.74-43.79 87.52-87.52a8.65 8.65 0 0 1 1.47-.96zm6.68-7.43c4.41-4.34 9-8.55 13.19-13.07a12.06 12.06 0 0 0 .09-16.26c-4.41-4.79-9-9.39-13.81-13.82-4.35-4-11.38-4.32-15.74-.36-4.78 4.32-9 9.21-13.45 13.77z"/></svg>