<svg id="Слой_1" data-name="Слой 1" xmlns="http://www.w3.org/2000/svg" viewBox="0 0 48 46"><defs><style>.cls-1{fill:#c0a296}.cls-2{fill:#fff}</style></defs><title>иконки электрастайл</title><path class="cls-1" d="M1.15 27.2L9.44.54h28.28l9.42 26.82-23.89 17.88L1.15 27.2z"/><path class="cls-2" d="M37.36 1l9.19 26.14-23.29 17.47L1.73 27 9.81 1h27.55m.71-1h-29L.57 27.37l22.67 18.5 24.5-18.33L38.07 0z"/><path class="cls-2" d="M16.64 19.7a1.21 1.21 0 0 0-1.29-1 1 1 0 0 0-1.07 1.06c0 1.55 2.91 1.27 2.91 3.28A2 2 0 0 1 15 24.86a3.14 3.14 0 0 1-1.59-.41v-1.27h.22c.22 1 .81 1.34 1.4 1.34a1.14 1.14 0 0 0 1.26-1.13c0-1.6-2.82-1.29-2.82-3.33a1.78 1.78 0 0 1 2-1.74 3.11 3.11 0 0 1 1.39.31v1.07zm4.25-1.37h.18l2.42 6 .55.24v.17h-2.33v-.17l.76-.24-.64-1.57h-2.3l-.62 1.57.73.24v.17h-1.87v-.17l.58-.24zm-1.18 3.94h1.93l-1-2.57zm4.79 2.28l.87-.24v-5.44l-.87-.24v-.17h2.7v.17l-.86.24v5.43h1.48c.91 0 1.16-.26 1.37-1.32h.22v1.74H24.5zm5.5 0l.87-.24v-5.44l-.87-.24v-.17h4.56v1.36h-.22c-.29-.8-.42-1-1.16-1h-1.31v2.41h1.55l.23-.76h.19v1.93h-.2l-.22-.76h-1.55v2.7h1.49c.86 0 1 0 1.34-1.21h.22v1.63H30z"/></svg>