<svg xmlns="http://www.w3.org/2000/svg" viewBox="0 0 160.15 139.97"><title>Ресурс 3</title><path d="M156.75 63.48L122.14 46.8l1-40.63a6 6 0 0 0-9.46-5.07l-33.1 23.31L46.44 1.09a6 6 0 0 0-9.38 5.36l2.68 40.7L3.3 65.53a6 6 0 0 0 0 10.74l37.24 18.55-1.44 38.91a6 6 0 0 0 9.46 5.14l32.26-22.68 36.1 21.33a6 6 0 0 0 9.06-5.46l-1.88-40L157 74.18a6 6 0 0 0-.26-10.7zM7.17 73.21zm111.4 12.08a6 6 0 0 0-3.13 5.56l1.72 36.83-33.41-19.74a6 6 0 0 0-6.51.25l-29.36 20.65 1.31-35.37a6 6 0 0 0-3.32-5.6l-34.09-17 33.36-16.82a6 6 0 0 0 3.3-5.76L46 11.19l31.21 21.33a6 6 0 0 0 6.85 0l30.39-21.39-1 37.16a6 6 0 0 0 3.4 5.56L148.47 69z"/><path d="M67.85 59H68c3.33 0 6.27-2.16 8.75-6.44a3.34 3.34 0 0 0-5.79-3.35c-1.42 2.46-2.53 3.11-3 3.11-.84 0-2.38-1.63-3.13-3a3.35 3.35 0 0 0-5.9 3.16c.36.65 3.61 6.44 8.92 6.52zm27.78-.1h.13c3.33 0 6.27-2.17 8.75-6.45a3.34 3.34 0 0 0-5.79-3.35c-1.42 2.46-2.53 3.11-3 3.11-.84 0-2.38-1.63-3.14-3a3.34 3.34 0 0 0-5.89 3.16c.38.63 3.63 6.43 8.94 6.53zm19.31 13.82c-1.34-.92-1.82-3.73-1.84-5a3.39 3.39 0 0 0-3.38-3.3 3.35 3.35 0 0 0-3.31 3.38 16.93 16.93 0 0 0 1.18 5.75c-23.4 19.51-45.15 5.93-52.26.37a11.85 11.85 0 0 0 1.05-7 3.35 3.35 0 0 0-6.65.75c.15 1.23.13 2.87-.71 3.62-1.21 1.09-4.05.89-5.24.62a3.35 3.35 0 0 0-1.51 6.52 17.06 17.06 0 0 0 3.6.38 14 14 0 0 0 4.19-.62c4.4 3.55 16.61 12.13 32.09 12.13 9.11 0 19.35-3 29.78-11.7a9 9 0 0 0 4.32 1 13.57 13.57 0 0 0 4.69-.92 3.34 3.34 0 0 0-2.31-6.27c-1.16.57-2.75.93-3.69.29z"/></svg>