<svg xmlns="http://www.w3.org/2000/svg" viewBox="0 0 201.77 202.88"><title>Ресурс 5</title><path d="M56.16 202.88c-7.75-3.71-10.92-9.88-10.26-18.38a101.68 101.68 0 0 0 0-14.18 5.07 5.07 0 0 0-2.41-3.7C20.2 157 7.6 139 2.8 114.94a136.59 136.59 0 0 1 1-59.65C10.07 29.67 26 12.7 51.49 6.18c32.16-8.21 64.79-8.09 97-.54 28.2 6.61 44.7 25.32 50.38 53.6a140.55 140.55 0 0 1-.23 57.59c-6.53 30.6-26 48-56.27 54.12-15.68 3.19-31.55 3.69-47.47 3.37a8.41 8.41 0 0 0-7.34 3.35c-4.48 5.4-9.37 10.47-13.8 15.91-3.42 4.19-7.17 7.73-12.47 9.3zM101.82 8.27c-14.55 1.55-28.2 2.19-41.52 4.58-24.94 4.48-41.57 18.88-47.85 44C7.9 75 7.86 93.39 11 111.8c4 23.71 16.43 40.51 39.94 48 3.23 1 4 3.3 4 6.27 0 7.31-.22 14.62.1 21.91a8.07 8.07 0 0 0 2.86 5.42c2.44 1.84 4.41-.08 6.12-2.06 6.18-7.16 12.58-14.13 18.6-21.41 2.63-3.17 5.5-4.21 9.57-4.39 16.13-.75 32.43-.8 48.32-3.27 26.72-4.15 43.74-20 49.5-46.83a131.61 131.61 0 0 0-.06-56.26c-5.43-24.89-20.57-40.68-45.55-45.64-14.29-2.84-28.93-3.64-42.58-5.27z"/><path d="M146.41 119.51c2.13 14.89-16 31.57-33 26.69a111 111 0 0 1-47.61-28.08c-12.5-12.29-21.34-27.27-27-43.89-4.71-13.72.49-26.95 12.57-34 5.69-3.33 11.77-3.38 17.9-2.67 1.46.17 3.18 1.85 4 3.28 2.39 4.23 4 8.91 6.61 13 4.74 7.45 3.75 14.53-1.76 20.5-4.36 4.72-3.47 8.34-.61 13.09A52.7 52.7 0 0 0 101 108.67c2.24 1 3.8 1 5.74-.71a41.41 41.41 0 0 1 7.44-5 13.07 13.07 0 0 1 13.49 0 95 95 0 0 0 11.91 5.93c5.42 2.05 8.42 5.17 6.83 10.62zm-27.65 19.28c9.64-.53 16.78-5.73 18.64-14.25 1.25-5.71.94-6.36-4.32-9l-5.75-2.89c-8-4-9.07-3.89-15.66 2.41a8.14 8.14 0 0 0-1.21 1.21c-2.55 3.63-5.73 3.48-9.46 2-15.61-6.27-27.11-16.79-34-32.22-3.57-8-3.58-8 2.39-14.47.68-.73 1.3-1.52 2-2.27 2.87-3.22 3.66-6.49 1.12-10.45-2-3.12-3.21-6.73-5.17-9.87a6.18 6.18 0 0 0-4.07-2.69C55.78 45.79 49 50.74 46.64 58s0 13.85 2.85 20.32c11.2 25.48 29.41 44.1 54.85 55.47 4.66 2.07 9.6 3.35 14.42 5zM103.58 28.28C130.6 29 155 53.51 155.8 80.89c.1 3.16-.41 6.12-4.05 6.42-4 .33-4.71-2.77-4.94-6-1.6-22.57-14.76-38.51-35.68-43.2a51 51 0 0 0-8.07-1.1c-3.15-.19-6.46-.18-6.37-4.46.09-4.68 3.66-4.36 6.89-4.27z"/><path d="M102.55 46.45c18 .58 34.41 17.23 34.79 35.17.07 3.08-.81 5.65-4.27 5.73-3.09.06-4.31-2.12-4.55-5.11-1.25-16.17-10.12-25.24-26.23-26.82-3.1-.31-5.9-1-5.62-4.89.27-3.53 2.92-4.16 5.88-4.08z"/><path d="M118.94 83.8c-.74.69-2.1 3-3.92 3.42-2.66.65-4.26-1.32-4.72-4.21-1.1-6.92-2.38-8.09-9.44-9.32-2.77-.48-4.89-2.08-4-4.84.52-1.64 2.89-3.7 4.55-3.81 8.38-.56 17.51 8.61 17.53 18.76z"/></svg>