<svg id="Слой_1" xmlns="http://www.w3.org/2000/svg" viewBox="0 0 23.8 14.8"><style>.st0{fill:#cfaa9d}</style><title>иконки электрастайл</title><path class="st0" d="M23.3 1.1c-.2 0-.3-.1-.5 0h-3.9c-.4 0-.8.3-1 .6l-.4.9-.4.8c-.5 1-1 2-1.7 2.9-.2.3-.4.5-.6.8-.1.1-.3.2-.4.2-.2-.1-.3-.2-.3-.4-.1-.2-.1-.5-.1-.7V1.9c0-.6-.3-1.1-.7-1.5-.5-.3-1.1-.4-1.7-.4-.6 0-1.3 0-1.9.1-.8.2-1.5.6-2.1 1.1l-.2.1.2.1.2.1c.1.1.2.1.3.2.6.2 1 .7 1 1.3v.2c.1.8.1 1.5.1 2.3 0 .6-.1 1.1-.3 1.7 0 .1-.1.2-.2.2s-.3 0-.4-.1c-.3-.4-.7-.7-.9-1.2l-.1-.2c-.8-1.2-1.5-2.6-2.1-4C5.1 1.4 4.6 1 4 1H1c-.4 0-.7.1-1 .4V2l.6 1.2c.4.9.8 1.9 1.3 2.8.8 1.7 1.8 3.3 2.9 4.8 1.2 1.8 3 3 5.1 3.5 1 .2 2 .2 3 .2.7 0 1-.3 1.1-.9s.1-1 .3-1.5c0-.1.1-.2.2-.4.2-.2.3-.3.4-.3.2 0 .4.1.7.4.4.4.8.8 1.2 1.3.5.7 1.3 1.3 2.1 1.6h3.9l1.1-.6v-.8c-.5-1-1.2-1.9-2-2.7l-.6-.6c-.2-.2-.5-.5-.7-.8-.5-.6-.6-.9-.2-1.6.4-.6.8-1.1 1.2-1.7s.9-1.2 1.3-1.9c.3-.4.5-.9.7-1.3l.3-.6v.1V2c-.1-.3-.1-.7-.6-.9zm-4.5 7.2c-.1.6.1 1.1.5 1.5.3.4.6.7 1 1s.6.6.9 1 .7.8 1 1.2l.3.4c0 .1.1.1.1.2h-3.4c-.3-.1-.6-.2-.8-.4l-1-1-.5-.6-.1-.1c-.2-.3-.5-.5-.7-.7-.3-.2-.7-.4-1-.4h-.3c-.5.1-.9.5-1.2 1-.3.6-.5 1.3-.5 2h-.9c-.7 0-1.3 0-2-.2-1.3-.4-2.5-1.1-3.4-2.1-.8-.9-1.5-1.9-2.1-2.9-1-1.3-1.8-2.6-2.4-4l-.5-.9c-.2-.3-.3-.5-.4-.8l-.1-.3h2.6c.1 0 .3.1.3.2.6 1.5 1.3 2.9 2.2 4.3.4.6.8 1.1 1.4 1.6.3.2.8.3 1.2.2.4-.1.7-.3.8-.7.2-.5.4-1 .5-1.5.1-.8.1-1.6.1-2.5.1-.9-.2-1.8-.7-2.5.6-.2 1.3-.2 1.9-.1.4.1.7.1 1 .2.2 0 .4.2.4.5V6c0 .5.1 1.1.3 1.5.2.5.6.8 1.1.9.5.1 1-.1 1.3-.4.8-.7 1.4-1.6 1.9-2.6.3-.6.6-1.3 1-2 .2-.4.3-.7.5-1.1 0 0 0-.1.1-.1h3.6l-.2.3c-.1.3-.3.6-.5.9-.4.5-.7 1.1-1.1 1.6-.4.5-.8 1.1-1.1 1.7-.7.5-1 1.1-1.1 1.6z"/></svg>