<svg xmlns="http://www.w3.org/2000/svg" viewBox="0 0 198.92 198.92"><title>Ресурс 6</title><path d="M198.92 91.69v14.77c-.51 2.9-1 5.81-1.54 8.71-8 41-31.67 68.07-72 79.85-7.11 2.07-14.67 2.64-22 3.9h-7.8a32.36 32.36 0 0 0-3.76-.72c-12.78-.85-25.19-3.69-36.25-10-6.56-3.76-12-3.83-18.69-1-10.31 4.34-20.94 7.9-31.44 11.78H0v-5.43c5.12-13 10.29-25.89 15.27-38.9.4-1.05-.21-2.78-.87-3.88A97.82 97.82 0 0 1 2.69 120.9C1.54 115.36.88 109.72 0 104.12v-8.54c.23-1.25.57-2.48.68-3.73C4.15 49.4 32.45 15.07 73.56 3.78c6.18-1.7 12.6-2.54 18.91-3.78h14.76a18.28 18.28 0 0 0 2.92.78c40.51 4 75.93 34.67 85.59 74.22 1.34 5.5 2.14 11.13 3.18 16.69zM11.08 187.94c2.46-.82 3.8-1.24 5.13-1.72 9.37-3.34 18.69-6.82 28.14-9.92 1.95-.64 4.85-.65 6.49.37 21.23 13.23 44.05 17.33 68.45 12.12 45.78-9.84 77-54.16 71.05-100.54-6.61-51.36-52.49-86.2-104.19-79.11C24.89 17.54-10.82 86 18.29 140.5c5 9.45 5.86 16.87 1.18 26-3.31 6.5-5.38 13.61-8.39 21.44z"/><path d="M74.49 50.05c5.26-1.25 8.13 1 9.77 5.84a39.47 39.47 0 0 0 4.46 9c4.55 6.86 3.2 13.32-1.79 18.81-3.56 3.92-3 6.93-.66 10.89a47.51 47.51 0 0 0 21.34 19.66 4.48 4.48 0 0 0 5.58-.73 38.83 38.83 0 0 1 7.1-4.66 11.4 11.4 0 0 1 11.47.16c4.54 2.47 9.35 4.47 13.8 7.07 1.53.89 3.21 2.91 3.38 4.56 1.45 14.47-6.95 25.63-21.24 28a22 22 0 0 1-10.25-.9c-33-11-55.23-33.13-66.26-66.13-3.74-11.18 1-22.85 11.3-28.62 3.57-2 7.85-2.76 11.81-4.08zm50.05 91.42c7.58-.63 13.2-4.3 15.63-10.8 2.08-5.52 1.2-7.82-4-10.41l-4.51-2.26c-7.29-3.66-8.16-3.53-14.13 2.09a14.19 14.19 0 0 0-1.64 1.65c-2 2.58-4.27 2.74-7.21 1.62-16.36-6.26-27.52-17.6-33.3-34.06-.57-1.61.45-4.15 1.45-5.82 1.44-2.41 3.61-4.37 5.36-6.61a5.25 5.25 0 0 0 .38-6.45c-1.86-3.24-3.19-6.81-5.17-10A5.87 5.87 0 0 0 73.26 58c-7.68-.2-14.65 5.64-14.93 13.33a35 35 0 0 0 2.55 14.27c10.18 24.6 27.73 42.11 52.29 52.45 3.63 1.52 7.57 2.3 11.37 3.42z"/></svg>