<svg id="Слой_1" data-name="Слой 1" xmlns="http://www.w3.org/2000/svg" viewBox="0 0 49.31 49.31"><defs><style>.cls-1{fill:#fff}.cls-2{fill:#cea99d}</style></defs><title>иконки электрастайл</title><path class="cls-1" d="M1.48 31.61l8-26.76h29.67l8.5 25.4-23.18 17.77L1.48 31.61z"/><path class="cls-2" d="M35.14 26.61a6.68 6.68 0 0 0-1-4.18 4.22 4.22 0 0 0-3.36-1.71H17.55a6.83 6.83 0 0 0-.79.06c-1.94.21-3.15 1.45-3.6 3.69a16.3 16.3 0 0 0-.16 3.9 4.57 4.57 0 0 0 1.73 3.42 5.83 5.83 0 0 0 3.84.93h12.1a5.62 5.62 0 0 0 .91-.05A4.47 4.47 0 0 0 35 29.18a11.74 11.74 0 0 0 .14-2.57zm-1.33.72v.9a3.12 3.12 0 0 1-2.64 3.13h-.08a5.46 5.46 0 0 1-.56 0H17.4a3.07 3.07 0 0 1-3.1-2.64 13.63 13.63 0 0 1-.07-1.72v-.26a20.45 20.45 0 0 1 .07-2.07 3 3 0 0 1 2.32-2.54 2.32 2.32 0 0 1 .61-.07H30.9A3 3 0 0 1 33.54 24a5.53 5.53 0 0 1 .26 1.46c.02.59.02 1.24.01 1.87zm-15.7-14.44c.2.64.4 1.29.64 1.93a8.06 8.06 0 0 1 .62 3.54v1.48h1.57v-2.95a1.43 1.43 0 0 1 .06-.49c.13-.42.28-.85.42-1.27l.27-.78c.18-.56.37-1.12.55-1.68l.26-.79h-1.66l-.65 2.62a.74.74 0 0 0 0 .14l-.77-2.76h-1.63l.05.16zm4.16 3.01v2.56a1.47 1.47 0 0 0 .66 1.19 1.88 1.88 0 0 0 1.13.36 2.83 2.83 0 0 0 .68-.09 1.59 1.59 0 0 0 1.14-1.27c0-.41 0-.82.07-1.23v-1.84a1.82 1.82 0 0 0-.74-1.58 2.11 2.11 0 0 0-1.4-.28 1.64 1.64 0 0 0-1.54 1.48zm1.5-.55c0-.23.07-.31.27-.31a.46.46 0 0 1 .32.08.28.28 0 0 1 .07.21v3a.38.38 0 0 1-.09.28.42.42 0 0 1-.3.08c-.19 0-.29-.06-.29-.38v-3zM27 19.78a.86.86 0 0 0 .51.16 1.14 1.14 0 0 0 .4-.08 4.52 4.52 0 0 0 .69-.36l.13-.07v.41h1.46v-6h-1.5v4.25a.53.53 0 0 1-.2.36.43.43 0 0 1-.3.12c-.16 0-.18-.12-.18-.39v-4.29h-1.37v.08a.24.24 0 0 0 0 .1v4.89a1 1 0 0 0 .36.82z"/><path class="cls-2" d="M27.62 25.1a1 1 0 0 0-.64-.58 1.15 1.15 0 0 0-.93.14l-.19.13V22.7h-1.3V30h1.26v-.19l.12.05a2.07 2.07 0 0 0 .57.21h.18a1 1 0 0 0 .63-.23 1.28 1.28 0 0 0 .43-1v-3a2.1 2.1 0 0 0-.13-.74zm-1.16 2.59v.91a.45.45 0 0 1-.12.33.17.17 0 0 1-.13 0c-.27 0-.35-.1-.34-.36v-2.68c0-.28.08-.34.26-.36a.25.25 0 0 1 .17.07.4.4 0 0 1 .14.32v1.73zm3.91-3.18a1.87 1.87 0 0 0-1.64.22 1.62 1.62 0 0 0-.68 1.34v2.45a1.52 1.52 0 0 0 .72 1.34 1.63 1.63 0 0 0 .91.26 1.94 1.94 0 0 0 1.14-.37 1.81 1.81 0 0 0 .49-1.64v-.1h-1.2v.27a1.42 1.42 0 0 0-.05.36c0 .21-.06.27-.27.28a.27.27 0 0 1-.31-.3v-1.09h2V27a7.2 7.2 0 0 0 0-.93 1.6 1.6 0 0 0-1.11-1.56zM30 26.44h-.63v-.12a4.6 4.6 0 0 1 0-.53c0-.14.07-.2.36-.18.13 0 .19 0 .2.22a4.88 4.88 0 0 0 .06.52zm-7.25-.75v2.56a.48.48 0 0 1-.34.54c-.18.08-.21.05-.22.05s0 0 0-.21v-4.06h-1.35v4.52a1 1 0 0 0 .38.81.81.81 0 0 0 .46.14 1.3 1.3 0 0 0 .42-.04 3.33 3.33 0 0 0 .58-.33l.08-.05v.37H24v-5.42h-1.25zm-5.86-1.65h1.17v5.92h1.4v-5.94h1.16v-1.31h-3.73v1.33z"/></svg>