<svg id="Слой_1" data-name="Слой 1" xmlns="http://www.w3.org/2000/svg" viewBox="0 0 49 49"><defs><style>.cls-1{fill:#cfaa9d}</style></defs><title>иконки электрастайл</title><path class="cls-1" d="M35.14 27.25a6.63 6.63 0 0 0-1-4.17 4.2 4.2 0 0 0-3.36-1.72H17.55a6 6 0 0 0-.75.06h-.08c-1.94.21-3.15 1.45-3.6 3.69A16.23 16.23 0 0 0 13 29a4.61 4.61 0 0 0 1.73 3.43 6 6 0 0 0 3.84.93h12.08A4.21 4.21 0 0 0 35 29.83a11.83 11.83 0 0 0 .14-2.58zm-1.33.75v.9a3.13 3.13 0 0 1-2.65 3.1h-.05a5.67 5.67 0 0 1-.58 0H17.4a3.06 3.06 0 0 1-3.1-2.63 13.76 13.76 0 0 1-.07-1.81v-.26a20.75 20.75 0 0 1 .07-2.08 3 3 0 0 1 2.32-2.54 3.66 3.66 0 0 1 .61-.07H30.9a3 3 0 0 1 2.64 1.92A5.6 5.6 0 0 1 33.8 26c.02.7.02 1.35.01 2zm-15.7-14.46c.2.63.4 1.29.64 1.92a8.09 8.09 0 0 1 .62 3.54v1.49h1.57v-2.96a1.35 1.35 0 0 1 .07-.48c.13-.43.28-.85.42-1.28l.27-.78c.18-.55.37-1.11.55-1.67l.26-.8h-1.67l-.65 2.63a.65.65 0 0 0 0 .13l-.77-2.76h-1.63l.05.17zm4.16 3v2.56a1.48 1.48 0 0 0 .66 1.2 1.88 1.88 0 0 0 1.13.36 2.43 2.43 0 0 0 .68-.1 1.58 1.58 0 0 0 1.14-1.26c0-.42.05-.83.07-1.24v-1.84a1.81 1.81 0 0 0-.74-1.55 2.05 2.05 0 0 0-1.4-.28 1.62 1.62 0 0 0-1.54 1.47zm1.5-.55c0-.23.07-.31.27-.31a.45.45 0 0 1 .32.09.27.27 0 0 1 .07.21v3a.35.35 0 0 1-.09.27.41.41 0 0 1-.3.09c-.19 0-.29-.07-.29-.38V16zM27 20.43a.92.92 0 0 0 .51.15 1.12 1.12 0 0 0 .4-.07 3.6 3.6 0 0 0 .7-.37l.12-.06v.41h1.46v-6h-1.5v4.24a.55.55 0 0 1-.2.37.41.41 0 0 1-.3.11c-.16 0-.18-.11-.18-.39v-4.29h-1.37v.07a.29.29 0 0 0 0 .1v4.9a1 1 0 0 0 .36.83z"/><path class="cls-1" d="M27.62 25.75a1 1 0 0 0-.64-.58 1.15 1.15 0 0 0-.93.14l-.19.13v-2.09h-1.3v7.26h1.26v-.2l.12.06a2.45 2.45 0 0 0 .57.21h.18a1 1 0 0 0 .63-.22 1.3 1.3 0 0 0 .43-1v-3a2.05 2.05 0 0 0-.13-.71zm-1.16 2.58v.91a.46.46 0 0 1-.12.34.22.22 0 0 1-.13 0c-.27-.05-.35-.1-.34-.36v-2.68c0-.28.08-.34.26-.36a.24.24 0 0 1 .17.06.44.44 0 0 1 .14.33v1.72zm3.91-3.17a1.87 1.87 0 0 0-1.64.21 1.62 1.62 0 0 0-.68 1.34v2.45a1.53 1.53 0 0 0 .72 1.35 1.72 1.72 0 0 0 .91.26 2 2 0 0 0 1.14-.38 1.79 1.79 0 0 0 .49-1.63v-.1h-1.2v.26a1.49 1.49 0 0 0-.05.36c0 .22-.06.28-.27.28a.26.26 0 0 1-.32-.29v-1.09h2v-.57a7.18 7.18 0 0 0 0-.93 1.59 1.59 0 0 0-1.1-1.52zM30 27.09h-.63v-.12a4.77 4.77 0 0 1 0-.54c0-.14.07-.19.36-.17.13 0 .19 0 .2.21A4.88 4.88 0 0 0 30 27zm-7.25-.76v2.57a.49.49 0 0 1-.34.54c-.18.07-.21 0-.22 0s0 0 0-.2v-4.02h-1.35v4.52a1 1 0 0 0 .38.81.8.8 0 0 0 .46.13 1 1 0 0 0 .42-.08 3 3 0 0 0 .58-.32l.08-.05v.37H24v-5.39h-1.25zm-5.86-1.64h1.17v5.92h1.4v-5.95h1.16v-1.31h-3.73v1.34z"/><g class="cls-2"><path class="cls-1" d="M23.69 49.29L.11 32.46 8.32 5h30.4l8.73 26.07zM1.28 32.06L23.67 48l22.6-17.33L38 6H9.07z"/></g></svg>